#!OML:ASF F:\VICON\USERDATA\INSTALL\rory3\rory3.ASF
:FULLY-SPECIFIED
:DEGREES
72
root 0.043354926986844566 17.815206153651136 26.129926283066528 -1.0254801424623707 1.5810982898381836 -1.3145939341779607
lfemur 8.868926745027299 -3.524718078110676 -20.09834528214917
ltibia 30.365316088324903
lfoot 1.4199128454861931 -10.849735877454448
ltoes -19.688947901612615
rfemur -23.70487982154328 5.921356296635598 22.732347942659302
rtibia 24.218981437854794
rfoot -5.653368725010277 -6.906629885082025
rtoes 2.0390927635900242
lowerback 9.421942891114542 -0.8149503404091641 -0.2897457073608751
upperback -0.16340338616475286 -1.0358939487792287 2.4365255441709617
thorax -5.1601754475891575 -0.5259554447252592 2.7106624158444643
lowerneck -16.70870433170466 -2.7269318663013444 -2.485545783904005
upperneck 20.629127435650158 -3.326727998703395 1.0564125319358784
head 9.29874235938373 -1.6008294893315795 0.36362528367139735
lclavicle -1.9540534992498667e-15 9.06020525060993e-16
lhumerus -29.342144458430475 -0.051224188417571814 82.90474476088481
lradius 32.661371408803014
lwrist 7.972083400056692
lhand -29.67343110176364 21.91814220804666
lfingers 7.12502
lthumb -2.929738476489179 52.039338522676395
rclavicle -1.9579398315609463e-15 9.041175294346779e-16
rhumerus -32.457594260323184 -23.780759999074128 -75.4724400165885
rradius 20.791968200142378
rwrist 11.546963116229495
rhand -17.17768927948783 23.272501680671947
rfingers 7.12502
rthumb 9.1002988102487 -6.749740592296229
73
root -0.004223504450033555 17.861717554079124 26.515504909560086 -1.079415356139552 0.7499190909344424 -1.8112049978058353
lfemur 4.235829272363466 -2.3194875946226277 -18.51487842847758
ltibia 38.58754243814664
lfoot 8.909837891788673 -14.258683005994405
ltoes -13.52296026901921
rfemur -22.370378813124603 5.40813875778093 24.356313033680152
rtibia 26.056072522266092
rfoot -6.999748121114902 -5.10716089045413
rtoes 4.5784165273969615
lowerback 9.264183513921914 -0.4743391398301212 0.05177472533981908
upperback -0.14074400253846503 -0.4930430941276567 2.538647392785511
thorax -5.152279220098435 -0.2514200142874856 2.5071399596796096
lowerneck -16.618372384720534 -2.701178504542236 -2.346729350463755
upperneck 20.797737866585738 -3.280682830446404 0.857620244275956
head 9.385853494574784 -1.581329811548914 0.2912572983584228
lclavicle -1.9544065751879066e-15 9.056945838828886e-16
lhumerus -31.16294669104287 0.8660437283970107 83.01307950292846
lradius 31.858476327630765
lwrist 7.3435189168383594
lhand -28.520891055620716 23.368137113612743
lfingers 7.12502
lthumb -1.7773742160158057 53.53969847644453
rclavicle -1.9594869523834253e-15 9.026253995937685e-16
rhumerus -32.320906064912826 -23.79231162682435 -75.41117307527493
rradius 20.623004777329363
rwrist 12.843695827009368
rhand -17.285443209397403 22.564560721654416
rfingers 7.12502
rthumb 8.94716271256631 -7.378176261221595
74
root -0.07571525236511634 17.946283598058972 26.896409360313314 -1.7818380749610958 1.117174890103621 -3.3978290924377177
lfemur -0.9893383471375641 -1.6670991166419462 -15.708567873126391
ltibia 46.72041813961251
lfoot 14.425602603565387 -15.994573644289659
ltoes -5.252979354067249
rfemur -19.574094153905165 6.250792404178011 26.6314670385911
rtibia 26.21043621062024
rfoot -7.485234353783015 -5.747556260853416
rtoes 5.964311754608532
lowerback 9.886714590202033 -0.3742357065593801 1.3691662988391842
upperback 0.045069757600473936 -0.306290690402685 2.9035519174694198
thorax -5.358611266415832 -0.1764818285996661 2.1440363060736938
lowerneck -16.550427090330917 -2.6977309918805537 -2.156969286747601
upperneck 20.765939314849156 -3.280659745173047 0.6979544332467966
head 9.353938192200639 -1.5883351052195658 0.22455606526622046
lclavicle -1.95408415907249e-15 9.059914693842105e-16
lhumerus -32.73031252788632 1.0493566795467955 83.1021443644548
lradius 31.223502515140172
lwrist 6.113832006154829
lhand -27.01859683906972 24.797663825375984
lfingers 7.12502
lthumb -0.11167306237550778 55.165237539023906
rclavicle -1.958539698915867e-15 9.033254704885156e-16
rhumerus -31.742094187431263 -22.653767843490485 -76.22840161302553
rradius 21.128299797126857
rwrist 11.190241474585061
rhand -17.33860445404632 21.97303087300424
rfingers 7.12502
rthumb 8.84581887395326 -7.86274353641519
75
root -0.1409367244190311 18.026975066052277 27.166464969987352 -2.104366771435468 0.8143985970673779 -4.871187201964702
lfemur -7.170252008804076 -0.8903258115442338 -13.619686305976954
ltibia 53.0934214508854
lfoot 16.33852073304012 -16.073833914805704
ltoes -1.0282499422447602
rfemur -16.497041555294373 6.844996758257669 29.020805861954585
rtibia 25.781878863572175
rfoot -8.763579050895133 -6.256248633396309
rtoes 6.602756381372254
lowerback 10.209616058266258 -0.04425145612055992 2.6591088878308264
upperback 0.131873703455044 0.28217034012148323 3.1722493794672224
thorax -5.4990597966008234 0.07626653233438746 1.5916626930807027
lowerneck -16.35619219537475 -2.7769971761247456 -2.182218351676015
upperneck 20.74534294295181 -3.4212291060265545 0.7936792548714562
head 9.314245674227614 -1.6465244599211224 0.23780304541479558
lclavicle -1.954221931418083e-15 9.058647831987762e-16
lhumerus -33.85948851348597 0.7334158215415233 83.24219854583778
lradius 30.168428510126493
lwrist 5.123208793449123
lhand -26.987367389251606 23.829081938625905
lfingers 7.12502
lthumb -0.2822793566833813 54.06243844313004
rclavicle -1.958443933650061e-15 9.034706970835486e-16
rhumerus -30.79920389099679 -21.178356671962646 -77.23837865728066
rradius 21.35964915410387
rwrist 10.052435782562412
rhand -17.034235498669123 22.00646413145176
rfingers 7.12502
rthumb 9.039580848025793 -7.883849310274232
76
root -0.1847641699219173 18.077455884019994 27.418392246421377 -2.503367945615506 0.18995250033264366 -5.759478863236849
lfemur -12.287845822672175 0.19275514645107084 -12.544231293117726
ltibia 56.163471419874796
lfoot 11.12241172609502 -14.029661778011594
ltoes -4.5677016278754285
rfemur -13.676572757367474 7.308367527550503 30.871587389733023
rtibia 25.785666170403402
rfoot -9.785539527181351 -6.219661145013906
rtoes 7.961009070921191
lowerback 10.508918985724588 0.37897725933517573 3.4781682647024033
upperback 0.3745637868707661 0.9248765018736879 3.1673874774308133
thorax -5.484255453556181 0.3889854753272798 0.9924271803076012
lowerneck -16.213137070275735 -2.832131122999848 -2.015301688236854
upperneck 20.840470083939547 -3.5413244942741358 0.7687198461089995
head 9.337234307898395 -1.698946095576617 0.19392496995456748
lclavicle -1.9532398370621954e-15 9.067688158897538e-16
lhumerus -34.51223995656215 0.6495560560493685 83.25177902574053
lradius 29.157101520953763
lwrist 3.659301370343599
lhand -26.291866104614847 24.262415818344223
lfingers 7.12502
lthumb 0.5009970369614662 54.634201031356326
rclavicle -1.958651526397661e-15 9.030615969902724e-16
rhumerus -29.962182576918803 -19.844979555293204 -78.16664052931546
rradius 21.81871599616155
rwrist 9.351441562461705
rhand -16.81474073665172 22.262267867091335
rfingers 7.12502
rthumb 9.2425608117405 -7.463919102800697
77
root -0.20222317329218925 18.107888202286244 28.149670967009058 -2.923093894146956 0.04970241429304023 -5.69087478469911
lfemur -16.416617474010792 0.8174438844066283 -12.753482255759444
ltibia 56.23810936640963
lfoot 4.051566248151215 -10.714134434547187
ltoes -6.972784539491115
rfemur -10.756084251637548 7.09861706406711 31.394939769456514
rtibia 26.28219190638485
rfoot -10.906960013252354 -6.096822112389162
rtoes 8.50863285382052
lowerback 10.556509994421369 0.6596568837553928 3.529334821163511
upperback 0.6220553033848589 1.2724886182381645 2.8396281340837737
thorax -5.321927603879682 0.5627601770806793 0.6262566511205282
lowerneck -16.057811386582294 -2.8642473268454416 -1.9324060359650594
upperneck 20.95753129652219 -3.6132095301664156 0.733627037880114
head 9.360786895768813 -1.7305926551089923 0.1652016150103763
lclavicle -1.953810667013287e-15 9.062433028719587e-16
lhumerus -34.73225449832245 1.5644252606802467 82.97752647091959
lradius 27.79512532132071
lwrist 2.7468715308496177
lhand -26.76168017768336 23.06981926640441
lfingers 7.12502
lthumb -0.08855681111780567 53.34166871131648
rclavicle -1.9600012720375915e-15 9.018777202656905e-16
rhumerus -29.056308432678254 -18.50437433888864 -79.0511046464747
rradius 22.20946611441925
rwrist 9.550646570434093
rhand -16.728305734483108 22.615212422248963
rfingers 7.12502
rthumb 9.298572469257685 -7.160735731167232
78
root -0.1953890519525115 18.13052428871954 28.44705181766009 -2.8761554801288702 -0.5309650711855209 -6.114534874407868
lfemur -19.760152190947018 1.1357517469255582 -12.456391429527775
ltibia 53.15629109876414
lfoot -1.0674030521279114 -8.211490492868167
ltoes -5.167693989983366
rfemur -7.895090239109139 6.937258171595191 32.05987152970525
rtibia 26.348963850373117
rfoot -11.547832533449155 -6.281409161149492
rtoes 8.681423308560053
lowerback 10.44187886566063 1.0272130634836154 4.095506035720266
upperback 0.6307420116492835 1.972454909139135 2.6402861970842126
thorax -5.289377416181789 0.8948705537308433 0.042957215132935156
lowerneck -15.944025551061353 -2.9038167515807123 -1.8423804825426935
upperneck 21.06617785080364 -3.6825338928085434 0.663810225668821
head 9.385788873774471 -1.7670043996673475 0.11547869862627258
lclavicle -1.9534480820454274e-15 9.065776054716714e-16
lhumerus -35.17538184055452 2.441818780755181 82.68803577464922
lradius 26.773814972573675
lwrist 3.36093881314585
lhand -27.230413407508156 22.480623056554023
lfingers 7.12502
lthumb -0.38501029749654253 53.165955067832954
rclavicle -1.9593449353619817e-15 9.024183981063247e-16
rhumerus -28.46826324880422 -16.610212978191225 -79.89219951738194
rradius 23.314621987551632
rwrist 7.231982727431336
rhand -16.919244114770546 21.577536228712844
rfingers 7.12502
rthumb 9.108527868791118 -7.892312671616787
